<?xml version="1.0" standalone="no"?>
<!DOCTYPE svg PUBLIC "-//W3C//DTD SVG 20010904//EN"
 "http://www.w3.org/TR/2001/REC-SVG-20010904/DTD/svg10.dtd">
<svg version="1.0" xmlns="http://www.w3.org/2000/svg"
 width="512.000000pt" height="512.000000pt" viewBox="0 0 512.000000 512.000000"
 preserveAspectRatio="xMidYMid meet">

<g transform="translate(0.000000,512.000000) scale(0.100000,-0.100000)"
fill="#000000" stroke="none">
<path d="M957 4928 c-194 -17 -373 -104 -527 -258 -161 -161 -230 -314 -238
-527 -5 -151 12 -241 72 -368 139 -293 455 -494 777 -495 55 0 58 -1 184 -96
71 -54 139 -103 153 -110 29 -15 77 -1 92 26 6 10 10 81 10 157 l1 138 66 45
c134 90 242 220 302 364 119 286 51 628 -172 862 -185 195 -433 286 -720 262z
m260 -538 c89 -44 157 -130 177 -226 l7 -31 -45 7 c-65 10 -150 -4 -212 -36
-69 -35 -124 -35 -192 1 -59 31 -151 46 -210 35 -50 -9 -51 -5 -22 74 37 98
129 178 237 206 21 5 74 7 118 5 63 -4 93 -11 142 -35z m-310 -429 c99 -43
191 -44 280 -1 90 42 122 46 177 21 46 -20 46 -20 46 -70 l0 -51 -361 0 -360
0 3 51 c3 47 6 53 38 71 45 24 85 20 177 -21z"/>
<path d="M3173 4820 c-391 -71 -619 -522 -441 -875 16 -32 38 -70 49 -83 l18
-24 -80 -65 c-282 -227 -516 -521 -599 -751 -53 -145 -62 -212 -58 -405 5
-210 17 -248 124 -395 l16 -22 -146 0 -146 0 0 375 c0 362 -1 376 -20 395 -19
19 -33 20 -479 20 -437 0 -460 -1 -482 -19 l-24 -19 -3 -376 -3 -376 -84 0
c-78 0 -85 -2 -104 -26 -26 -34 -27 -68 -1 -94 19 -19 33 -20 330 -20 l310 0
0 -55 c0 -65 16 -109 66 -176 l36 -50 -57 -153 -57 -154 -32 9 c-109 32 -227
-28 -273 -139 -17 -41 -19 -136 -3 -177 15 -39 66 -92 111 -116 37 -18 37 -19
40 -92 5 -97 49 -189 120 -249 39 -35 49 -49 49 -74 0 -52 37 -156 78 -220 94
-146 243 -224 427 -224 141 0 253 46 351 144 67 67 104 131 130 225 l17 61
752 0 751 0 13 -52 c22 -88 78 -183 143 -243 102 -95 206 -135 349 -135 248 0
439 156 493 403 4 15 13 27 21 27 34 0 55 38 55 98 0 238 -186 464 -436 529
l-69 18 -65 716 -66 716 103 6 c72 4 117 12 150 27 102 45 164 141 165 254 1
123 -51 214 -149 262 -57 29 -60 29 -238 29 l-181 0 -64 -32 c-56 -28 -67 -30
-80 -18 -8 8 -36 23 -60 34 -42 19 -65 21 -362 21 -175 0 -318 2 -318 4 0 3 7
35 16 73 15 66 15 184 -1 224 -5 12 2 20 25 28 20 7 35 21 43 40 9 24 20 31
70 45 189 53 312 193 354 403 l16 82 90 3 c84 3 91 5 110 30 36 49 3 108 -62
108 l-37 0 -22 73 c-57 193 -229 360 -422 412 -72 19 -202 26 -267 15z m453
-692 c-8 -61 -51 -159 -90 -205 -28 -33 -136 -93 -168 -93 -17 0 -18 12 -18
175 l0 175 141 0 142 0 -7 -52z m-667 -432 c31 -19 73 -41 94 -50 31 -12 43
-26 64 -72 22 -49 25 -66 21 -133 -3 -42 -13 -95 -23 -118 l-17 -43 -104 0
c-91 0 -107 -3 -124 -20 -25 -25 -26 -71 -2 -99 17 -21 22 -21 513 -23 473 -3
498 -4 518 -22 31 -28 28 -79 -5 -105 -26 -21 -35 -21 -589 -21 -550 0 -562 0
-580 -20 -23 -26 -24 -74 0 -100 14 -16 33 -20 107 -22 l89 -3 -47 -67 c-39
-57 -51 -68 -75 -68 -27 0 -464 44 -548 56 l-43 6 6 48 c26 196 180 444 422
681 108 105 248 227 263 229 2 0 29 -15 60 -34z m1549 -586 c79 -48 81 -177 4
-235 -24 -17 -46 -20 -173 -23 -114 -3 -154 0 -182 12 -50 20 -77 68 -77 135
0 49 3 57 39 92 l39 39 158 0 c142 0 163 -2 192 -20z m-2740 -445 c2 -99 0
-244 -3 -322 l-7 -143 -354 0 -354 0 0 319 0 320 38 4 c20 2 181 3 357 3 l320
-1 3 -180z m1989 -365 c32 -327 52 -573 49 -615 -2 -38 -14 -96 -26 -127 -27
-73 -105 -178 -131 -178 -26 0 -96 65 -120 111 -24 48 -24 80 2 476 11 175 18
344 16 375 -10 119 -93 234 -205 286 -43 19 -93 30 -202 43 -80 9 -146 17
-147 18 -2 1 15 28 37 62 22 34 42 70 45 80 6 19 19 19 318 17 l311 -3 53
-545z m-1024 265 c546 -57 561 -60 614 -117 34 -36 53 -92 53 -157 0 -33 -9
-203 -21 -378 -11 -175 -18 -342 -16 -371 7 -68 45 -150 97 -206 l41 -45 -38
-10 c-52 -15 -148 -13 -208 3 -188 50 -330 210 -343 386 l-4 67 59 71 c102
122 116 225 41 316 -56 68 -78 73 -313 78 -233 6 -264 12 -347 73 -52 38 -102
105 -123 166 -19 53 -31 179 -18 179 5 0 242 -25 526 -55z m-1453 -1232 c0
-19 -55 -163 -63 -163 -4 0 -19 11 -32 25 -54 53 -16 145 60 145 19 0 35 -3
35 -7z m1109 -17 c18 -17 21 -30 21 -108 l0 -88 -210 0 -210 0 0 88 c0 131 2
132 221 129 139 -2 159 -4 178 -21z m-189 -709 c0 -32 -64 -138 -106 -177 -74
-68 -143 -95 -244 -95 -71 0 -94 5 -142 27 -98 46 -173 133 -203 236 l-6 22
350 0 c287 0 351 -2 351 -13z m2505 -9 c-30 -103 -105 -190 -203 -236 -48 -22
-71 -27 -142 -27 -101 0 -170 27 -244 95 -42 39 -106 145 -106 177 0 11 64 13
351 13 l350 0 -6 -22z"/>
<path d="M207 2972 c-23 -25 -22 -85 1 -105 16 -15 50 -17 265 -17 234 0 248
1 267 20 26 26 26 74 0 100 -19 19 -33 20 -268 20 -228 0 -250 -2 -265 -18z"/>
<path d="M363 2703 c-52 -10 -70 -84 -30 -121 22 -21 32 -22 203 -22 176 0
181 1 202 23 27 29 28 67 3 98 -19 23 -24 24 -188 26 -92 0 -178 -1 -190 -4z"/>
<path d="M473 2410 c-47 -19 -56 -78 -18 -115 23 -24 30 -25 140 -25 110 0
117 1 140 25 14 13 25 36 25 50 0 14 -11 37 -25 50 -23 24 -30 25 -132 24 -59
0 -118 -4 -130 -9z"/>
</g>
</svg>
