<svg xmlns="http://www.w3.org/2000/svg" viewBox="0 0 230.65 47.42"><defs><style>.a{fill:#ed2736;}</style></defs><title>GoFood logo - Brandlogos.net</title><path d="M522.16,490.22c3.58-2.87,8.48-1.61,12.69-1.89q0,3.06,0,6.12a63.74,63.74,0,0,0-6.73.14c-1.41.54-1,2.27-1.09,3.45h9.4v6H527v19.1H520q0-9.55,0-19.1h-6v-6h6C519.86,495.32,519.8,492.08,522.16,490.22Z" transform="translate(-396.68 -488.29)"/><path d="M620.25,488.54h7.07q0,17.31,0,34.62h-6.55c0-.81,0-1.63,0-2.43a11.48,11.48,0,0,1-8.47,3.19,13.21,13.21,0,0,1-10.22-4.16,13.5,13.5,0,0,1,18.15-19.85C620.23,496.12,620.25,492.33,620.25,488.54Zm-9.85,15.37c-3.92,1.27-5.73,6.15-4,9.8,2.36,5.11,10.8,5.15,13.43.28.73-1.92.41-4.08.31-6.08C618.85,504.09,614,502.78,610.41,503.9Z" transform="translate(-396.68 -488.29)"/><path d="M495.17,497.6a19,19,0,0,1,8.11.22,13.44,13.44,0,0,1,8.43,6.44,13.3,13.3,0,0,1-1,14.25c-3.76,5-10.86,6.46-16.64,4.73a13.34,13.34,0,0,1,1.14-25.63Zm2.39,6.12a7,7,0,1,0,4.67,13.17,7.25,7.25,0,0,0,3-10.07A7,7,0,0,0,497.56,503.72Z" transform="translate(-396.68 -488.29)"/><path d="M546.7,497.63a17.46,17.46,0,0,1,10.95,1.2,13.08,13.08,0,0,1,4.78,19.48c-3.72,5.16-11,6.68-16.86,4.9a13.33,13.33,0,0,1,1.13-25.58Zm1.68,6.34a7,7,0,0,0,2.75,13.61c4.33,0,7.65-4.7,6.51-8.83A7,7,0,0,0,548.38,504Z" transform="translate(-396.68 -488.29)"/><path d="M577.9,497.59c4.51-.83,9.53-.18,13.2,2.76a13.12,13.12,0,0,1-5,23,16.62,16.62,0,0,1-10.27-.41,13.34,13.34,0,0,1,2.08-25.31Zm1.71,6.31a7,7,0,0,0-.83,13,7,7,0,0,0,8.15-1.52,7.19,7.19,0,0,0,.34-9.46A7.08,7.08,0,0,0,579.62,503.9Z" transform="translate(-396.68 -488.29)"/><path d="M457.09,501.22c4.59-4.54,12.85-5.19,17.73-.75,0-.81,0-1.62,0-2.43h6.76q0,12.31,0,24.61a11.2,11.2,0,0,1-4.53,9.11,14.8,14.8,0,0,1-8.72,2.74,16.39,16.39,0,0,1-13.85-6c1.7-1.43,3.41-2.84,5.11-4.26a9.94,9.94,0,0,0,9.24,4.1,6.58,6.58,0,0,0,5.22-3.1,9.08,9.08,0,0,0,.81-4.44,11.4,11.4,0,0,1-6,2.91,15.46,15.46,0,0,1-7.77-.95,13.17,13.17,0,0,1-4-21.55Zm7.62,3c-4.46,1.24-5.89,7.33-3.12,10.78s8.35,3.25,11.4.41c1.94-1.82,1.6-4.73,1.38-7.12C473.23,504.41,468.27,502.87,464.71,504.25Z" transform="translate(-396.68 -488.29)"/><path class="a" d="M415.4,490.87a22.58,22.58,0,1,1-11.74,38.58A22.35,22.35,0,0,1,397,517.18a22.56,22.56,0,0,1,18.35-26.31Zm-5.51,10.92c-.3,2.57.06,5.17-.17,7.75a1.07,1.07,0,0,1-2-.44c-.23-2.12.47-4.21.41-6.3a1.7,1.7,0,0,0-3.21-.08,40.47,40.47,0,0,0-.64,7.69,8,8,0,0,0,3.63,6.85c2.48,1.65,1.12,5,1.91,7.38a1.86,1.86,0,0,0,3.38-.08c.65-2.24-.52-5.25,1.59-6.9a7.63,7.63,0,0,0,3.77-5.58,36.46,36.46,0,0,0-.5-9.29c-.32-1.6-2.84-1.49-3.2,0-.15,2.4,1.1,5-.11,7.27-.73,0-1.47-.27-1.55-1.11-.24-2.47.17-5-.19-7.43A1.68,1.68,0,0,0,409.89,501.79Zm16.36-1a6.49,6.49,0,0,0-3.19,3.09,16.56,16.56,0,0,0-1.86,7.37,6.85,6.85,0,0,0,3,5.71c2.49,1.83.9,5.35,1.87,7.83a1.89,1.89,0,0,0,3.31-.19c.44-1.9.09-3.9.46-5.81.41-1.67,2.29-2.26,3.15-3.65,1.49-2,1.3-4.74.83-7.09a12.38,12.38,0,0,0-3-6.19A4.46,4.46,0,0,0,426.24,500.8Z" transform="translate(-396.68 -488.29)"/></svg>