<svg xmlns="http://www.w3.org/2000/svg" viewBox="0 0 280 55.31"><title>Shopee Food logo - Brandlogos.net</title><path d="M492.66,504.07c8.09,2.42,11.27,5.45,10.77,10.31a8.09,8.09,0,0,1-4.91,6.68,12.52,12.52,0,0,1-5.28,1,17.06,17.06,0,0,1-7.18-1.71,17.93,17.93,0,0,1-2.91-1.91h0c-.43-.36-.48-.6-.19-1l.54-.82.57-.86c.35-.52.71-.52,1.21-.17l.18.13.18.13a13.18,13.18,0,0,0,7.57,2.74c3.61-.11,6.15-1.73,6.56-4.14.45-2.64-1.73-4.91-6-6.16a49.35,49.35,0,0,1-5.67-2.14c-3.2-1.79-4.75-4.22-4.58-7.24.25-4.18,4.09-7.36,9-7.47a16.38,16.38,0,0,1,6.38,1.19,16.69,16.69,0,0,1,2.53,1.31c.55.39.55.65.28,1.16l-.55.8h0l-.54.78a.72.72,0,0,1-1.14.21,12.26,12.26,0,0,0-6.83-2c-3.05.11-5.29,1.92-5.4,4.32,0,2.16,1.72,3.73,5.44,4.93" transform="translate(-424 -476.43)" style="fill:#ed4d2d"/><path d="M515.12,502.86a9,9,0,0,1,9,8.87v9.54c0,.55-.14.68-.68.68h-2.27c-.55,0-.68-.13-.68-.68v-9.51a5.4,5.4,0,0,0-10.8,0v9.53c0,.47-.19.68-.68.68h-2.27c-.54,0-.68-.2-.68-.68V492.08c0-.5.14-.68.68-.68H509c.49,0,.68.19.68.68v12.56a9.07,9.07,0,0,1,5.4-1.78" transform="translate(-424 -476.43)" style="fill:#ed4d2d"/><path d="M536.35,502.88a9.58,9.58,0,1,0,9.77,9.58,9.68,9.68,0,0,0-9.77-9.58m0,15.63a6.06,6.06,0,1,1,6.19-6.06,6.12,6.12,0,0,1-6.19,6.06" transform="translate(-424 -476.43)" style="fill:#ed4d2d"/><path d="M609.3,513.74h.05a1.14,1.14,0,0,0,1.07-1.15s0-.06,0-.08,0,0,0-.07a9.27,9.27,0,1,0-18.53,0,10,10,0,0,0,.07,1.18l0,.13h0a9.33,9.33,0,0,0,2.35,5.06h0a9.84,9.84,0,0,0,5.49,3l.17,0h0l.25,0a12.81,12.81,0,0,0,7.41-1.13,9.31,9.31,0,0,0,1.4-.86l.35-.29.12-.11c.52-.53.54-.77.23-1.25-.72-1.14-1.12-1.7-1.12-1.7-.28-.35-.53-.43-.89-.12l-.15.13a8.41,8.41,0,0,1-7.39,1.76,8.25,8.25,0,0,1-1.41-.51,5.92,5.92,0,0,1-3.22-4.09H609.3m-13.51-3.51a5.52,5.52,0,0,1,5.36-3.86,5.93,5.93,0,0,1,5.46,3.86Z" transform="translate(-424 -476.43)" style="fill:#ed4d2d"/><path d="M558.5,502.83a9.58,9.58,0,0,0-6.08,2.16v-1.48c0-.51-.14-.68-.68-.68h-2.16c-.54,0-.68.15-.68.68v27.55c0,.5.14.68.68.68h2.16c.54,0,.68-.18.68-.68V519.82a9.59,9.59,0,1,0,6.08-17m0,15.63a6.07,6.07,0,0,1-6.07-5.9v-.31a6.08,6.08,0,1,1,6.07,6.22" transform="translate(-424 -476.43)" style="fill:#ed4d2d"/><path d="M588.32,513.74h.05a1.14,1.14,0,0,0,1.07-1.15s0-.06,0-.08,0,0,0-.07a9.27,9.27,0,1,0-18.53,0,10,10,0,0,0,.07,1.18l0,.13h0a9.33,9.33,0,0,0,2.35,5.06h0a9.84,9.84,0,0,0,5.49,3l.17,0h0l.25,0a12.81,12.81,0,0,0,7.41-1.13,9.26,9.26,0,0,0,1.4-.86l.35-.29.12-.11c.52-.53.54-.77.23-1.25-.72-1.14-1.12-1.7-1.12-1.7-.28-.35-.53-.43-.89-.12l-.15.13a8.41,8.41,0,0,1-7.39,1.76,8.28,8.28,0,0,1-1.41-.51,5.93,5.93,0,0,1-3.22-4.09h13.73m-13.51-3.51a5.52,5.52,0,0,1,5.36-3.86,5.93,5.93,0,0,1,5.46,3.86Z" transform="translate(-424 -476.43)" style="fill:#ed4d2d"/><polygon points="191.39 45.56 196.97 45.56 196.97 33.8 211.27 33.8 211.27 28.19 196.97 28.19 196.97 21.24 211.73 21.24 211.73 15.67 191.39 15.67 191.39 45.56" style="fill:#ed4d2d"/><path d="M648,501.14a10.77,10.77,0,0,0-7.51,3.09,10.9,10.9,0,0,0-3.09,7.6,11.06,11.06,0,0,0,3.09,7.6h0a10.78,10.78,0,0,0,7.51,3.13,10.42,10.42,0,0,0,7.47-3.13,10.79,10.79,0,0,0,0-15.21,10.25,10.25,0,0,0-7.47-3.09m0,16.11a5.42,5.42,0,1,1,5.26-5.42,5.33,5.33,0,0,1-5.26,5.42" transform="translate(-424 -476.43)" style="fill:#ed4d2d"/><path d="M671,501.23a10.77,10.77,0,0,0-7.51,3.09,10.9,10.9,0,0,0-3.09,7.6,11.07,11.07,0,0,0,3.09,7.6h0a10.78,10.78,0,0,0,7.51,3.13,10.43,10.43,0,0,0,7.47-3.13,10.79,10.79,0,0,0,0-15.21,10.26,10.26,0,0,0-7.47-3.09m0,16.11a5.42,5.42,0,1,1,5.26-5.42,5.33,5.33,0,0,1-5.26,5.42" transform="translate(-424 -476.43)" style="fill:#ed4d2d"/><path d="M698.94,492.22V503h0a7.65,7.65,0,0,0-5.29-1.77,9.6,9.6,0,0,0-7.19,2.88,10.59,10.59,0,0,0-2.86,7.54,11.18,11.18,0,0,0,2.86,7.79h0a10.33,10.33,0,0,0,7.47,2.86,6.64,6.64,0,0,0,5-1.81l0,0v1.43H704V492.22Zm-5,24.94a5.57,5.57,0,1,1,5-5.55,5.38,5.38,0,0,1-5,5.55" transform="translate(-424 -476.43)" style="fill:#ed4d2d"/><path d="M467.32,476.43H430.6l-6.6,9.72,1.72,37.05a4.56,4.56,0,0,0,4.55,4.34h6.9V513.78a2.38,2.38,0,0,0-.6-1.58l-1.85-2.09A3.4,3.4,0,0,1,434,508V495.12a1,1,0,0,1,1-1h1.78v11.06a.93.93,0,0,0,.93.93h.13a.93.93,0,0,0,.93-.93V494.16h2.57v11.06a.93.93,0,0,0,.93.93h.13a.93.93,0,0,0,.93-.93V494.16h1.78a1,1,0,0,1,1,1V508a3.4,3.4,0,0,1-.7,2.07l-1.85,2.09a2.38,2.38,0,0,0-.6,1.58v13.77h12V512.64a2.93,2.93,0,0,0-1-2.07,7.17,7.17,0,0,1-.91-.78h0a9.34,9.34,0,0,1-2.5-6.59c0-4.86,3.16-9.78,7-9.78s7,4.92,7,9.78a9.34,9.34,0,0,1-2.5,6.59h0a7.16,7.16,0,0,1-.91.78,2.93,2.93,0,0,0-1,2.07v14.91h7.35a4.55,4.55,0,0,0,4.55-4.34l1.72-37.05Zm-7.65,10H438.25v-4.75a1,1,0,0,1,1-1h19.37a1,1,0,0,1,1,1Z" transform="translate(-424 -476.43)" style="fill:#ed4d2d"/></svg>